<svg xmlns="http://www.w3.org/2000/svg" xmlns:v="https://svgstorm.com"
viewBox = "0 0 944 544"
width="944"
height="544">
<g fill="#000000" fill-opacity="0.00" stroke="None"><path d="
M 0.00 544.00 
L 944.00 544.00
L 944.00 0.00
L 0.00 0.00
L 0.00 544.00
M 205.00 194.00 
C 207.12 193.94 209.23 193.77 211.00 195.00
C 223.78 197.25 235.57 207.10 241.00 219.00
C 246.23 228.76 248.39 239.63 248.00 251.00
C 255.05 285.69 230.60 327.20 191.26 322.60 C 179.62 321.66 167.72 319.29 158.75 311.25 C 151.93 305.58 139.15 285.57 157.00 289.00
C 164.72 286.94 173.25 288.01 181.00 286.00
C 182.24 294.05 189.50 300.30 198.00 299.00
C 206.58 296.42 210.01 286.91 212.00 279.00
C 211.44 273.78 213.72 269.28 213.00 264.00
C 187.06 294.46 132.05 264.23 145.00 226.00
C 144.72 221.54 147.18 217.84 149.00 214.00
C 153.12 206.12 160.68 199.82 169.00 197.00
C 173.14 195.37 177.26 193.48 182.00 194.00
C 188.59 192.36 198.48 192.32 205.00 194.00
M 524.00 208.00 
C 524.71 212.04 522.80 215.33 522.00 219.00
C 523.67 217.89 525.13 216.70 527.00 216.00
C 541.10 209.00 556.04 203.89 572.00 203.00
C 579.07 201.19 589.30 201.24 596.00 204.00
C 597.56 203.59 598.69 204.46 600.00 205.00
C 609.18 207.51 617.19 216.07 620.00 225.00
C 621.14 227.52 622.24 230.08 622.00 233.00
C 630.91 275.92 587.64 306.88 550.93 314.93 C 537.88 320.18 515.57 315.73 524.00 298.00
C 523.46 295.32 524.92 293.22 526.00 291.00
C 526.99 287.52 528.76 283.69 531.00 281.00
C 539.58 262.53 551.30 245.44 562.00 228.00
C 554.71 225.82 543.04 230.71 539.00 235.00
C 539.42 238.28 544.45 235.46 544.00 239.00
C 534.69 241.91 508.99 256.97 514.00 237.00
C 514.07 236.51 514.00 236.00 514.00 236.00
C 512.03 233.78 507.19 244.88 503.75 247.75 C 495.66 256.96 487.13 265.90 479.25 275.25 C 474.87 280.86 466.46 283.51 469.00 292.00
C 469.28 293.99 470.48 295.78 470.00 298.00
C 476.09 303.73 483.38 295.32 486.00 290.00
C 486.16 289.56 486.00 289.00 486.00 289.00
C 481.14 277.86 491.49 267.79 500.25 262.25 C 516.97 257.45 504.61 280.24 503.00 288.00
C 504.00 288.00 505.00 288.00 506.00 288.00
C 506.30 287.76 507.00 288.00 507.00 288.00
C 509.44 286.10 512.63 284.02 516.00 284.00
C 517.96 295.43 502.58 297.46 494.00 297.00
C 490.52 304.57 483.18 311.02 475.77 314.77 C 464.30 318.44 457.01 307.08 458.00 297.00
C 458.03 296.50 457.97 295.50 458.00 295.00
C 448.23 299.11 440.37 313.16 427.93 314.93 C 410.94 319.62 401.00 299.33 406.00 286.00
C 405.82 279.83 409.78 274.86 413.00 270.00
C 418.38 263.57 424.49 257.35 432.00 254.00
C 438.36 251.07 451.91 247.15 455.00 256.00
C 458.17 274.07 435.18 284.66 421.00 290.00
C 420.92 294.22 422.51 298.80 426.00 301.00
C 432.74 301.90 438.07 297.91 444.00 296.00
C 447.99 291.74 453.06 288.13 458.00 285.00
C 458.53 282.81 456.86 279.38 459.00 278.00
C 460.80 264.96 468.88 253.80 476.00 243.00
C 485.81 229.00 498.43 215.68 512.00 205.00
C 515.92 200.60 525.37 199.78 524.00 208.00
M 342.00 212.00 
C 356.56 225.04 343.04 245.10 334.23 257.23 C 326.17 270.70 312.33 281.29 307.00 296.00
C 308.00 296.00 309.00 296.00 310.00 296.00
C 310.30 295.75 311.00 296.00 311.00 296.00
C 322.66 284.17 333.75 271.70 345.00 260.00
C 348.23 253.87 353.95 248.81 358.00 243.00
C 366.42 236.05 375.27 210.07 387.00 223.00
C 387.20 223.40 387.00 224.00 387.00 224.00
C 388.37 237.26 375.33 248.94 370.23 261.23 C 363.65 273.85 354.50 286.19 354.00 301.00
C 363.63 298.99 368.73 287.72 376.00 282.00
C 380.63 274.71 385.66 266.74 391.00 260.00
C 393.36 252.34 398.64 245.68 401.00 238.00
C 396.92 235.38 397.41 229.01 402.00 227.00
C 402.25 226.75 402.00 226.00 402.00 226.00
C 409.98 210.74 419.33 229.15 412.07 238.07 C 404.94 267.80 388.85 299.79 361.31 315.31 C 348.49 320.85 338.76 305.29 342.00 295.00
C 341.62 287.81 344.07 281.27 347.00 275.00
C 334.23 285.13 323.16 305.13 306.92 313.92 C 296.18 321.05 288.19 302.96 291.00 295.00
C 290.97 288.20 296.57 283.35 300.00 278.00
C 305.67 270.46 311.19 262.47 318.00 256.00
C 318.24 255.68 318.00 255.00 318.00 255.00
C 323.83 248.28 328.46 240.60 334.00 234.00
C 334.09 233.52 334.00 233.00 334.00 233.00
C 334.00 231.67 334.00 230.33 334.00 229.00
C 315.83 227.40 300.49 240.98 284.77 248.77 C 276.91 255.53 274.90 243.79 279.00 239.00
C 278.77 237.17 279.07 235.53 280.00 234.00
C 280.48 225.49 287.90 217.71 296.00 216.00
C 296.54 217.39 293.70 219.25 296.00 220.00
C 298.67 218.94 300.92 216.74 304.00 217.00
C 306.60 214.66 310.38 213.27 314.00 213.00
C 322.50 210.11 333.42 207.85 342.00 212.00
M 726.00 268.00 
C 729.88 280.22 719.29 292.72 709.00 299.00
C 710.66 301.35 713.82 299.18 716.00 299.00
C 727.66 293.86 737.83 285.52 741.00 273.00
C 745.75 265.49 754.17 252.63 764.00 256.00
C 764.49 256.05 765.00 256.00 765.00 256.00
C 775.55 269.41 749.54 280.67 749.00 294.00
C 750.98 298.23 755.92 298.27 760.00 298.00
C 777.00 291.92 780.05 272.94 795.00 263.00
C 795.40 262.80 796.00 263.00 796.00 263.00
C 800.84 257.10 808.05 253.54 815.00 251.00
C 815.47 250.89 816.00 251.00 816.00 251.00
C 824.41 244.97 833.43 256.58 823.70 262.70 C 811.53 271.81 787.30 277.24 789.00 297.00
C 803.65 297.16 811.50 281.21 820.00 272.00
C 820.98 267.53 824.40 262.33 829.00 261.00
C 837.62 258.94 836.64 273.10 833.22 278.22 C 830.34 285.27 827.85 292.42 824.00 299.00
C 828.49 297.49 831.73 293.19 836.00 291.00
C 837.25 290.70 837.71 289.17 839.00 289.00
C 840.52 286.49 843.22 284.90 844.00 282.00
C 847.44 273.80 852.93 264.43 861.00 260.00
C 871.26 254.30 875.21 267.09 866.25 272.25 C 862.97 278.20 854.10 283.04 855.00 290.00
C 857.41 288.89 858.62 286.04 861.00 285.00
C 865.88 277.14 873.16 269.50 880.75 263.75 C 886.61 256.43 902.38 248.36 902.00 264.00
C 904.54 276.15 879.39 285.06 888.00 298.00
C 891.33 296.88 893.56 293.61 897.00 293.00
C 899.48 289.05 903.50 286.71 907.00 284.00
C 911.13 294.91 896.42 301.35 890.25 308.25 C 883.38 319.61 863.20 313.89 870.00 300.00
C 869.46 297.32 870.92 295.22 872.00 293.00
C 872.96 287.25 878.39 283.39 880.00 278.00
C 869.21 285.83 861.55 297.63 853.25 308.25 C 844.93 314.63 842.28 300.52 841.00 295.00
C 818.38 307.41 808.49 330.13 793.25 349.25 C 788.02 358.52 771.73 356.93 780.00 345.00
C 779.83 341.52 782.31 338.78 784.00 336.00
C 789.98 323.98 803.76 319.13 810.00 308.00
C 810.11 307.53 810.00 307.00 810.00 307.00
C 810.40 304.89 811.38 302.34 813.00 301.00
C 813.11 300.53 813.00 300.00 813.00 300.00
C 812.86 297.75 815.16 296.29 815.00 294.00
C 808.45 299.27 802.89 305.86 795.30 309.31 C 785.73 315.79 779.11 303.06 777.00 296.00
C 769.51 301.90 763.88 310.64 754.92 313.92 C 742.59 318.64 736.35 303.98 736.00 294.00
C 726.42 299.66 719.01 309.37 707.98 311.98 C 696.01 316.42 680.76 308.14 680.00 295.00
C 670.06 303.52 660.92 314.99 647.00 315.00 C 630.30 316.54 625.12 293.67 631.00 282.00
C 630.83 278.52 633.30 275.78 635.00 273.00
C 640.73 264.21 648.88 256.16 659.00 253.00
C 665.01 250.65 677.49 248.19 679.00 257.00
C 681.42 271.78 663.81 281.30 652.31 287.30 C 641.53 287.05 644.07 302.64 654.00 301.00
C 666.08 298.72 674.94 289.28 685.00 283.00
C 685.24 282.68 685.00 282.00 685.00 282.00
C 689.54 276.33 695.25 271.56 700.25 266.25 C 706.91 260.78 707.90 252.10 712.00 246.00
C 727.20 237.50 722.28 259.45 726.00 268.00 Z"/>
</g>
<g fill="#F4CBFF" fill-opacity="1.00" stroke="None"><path d="
M 182.00 194.00 
C 189.67 194.00 197.33 194.00 205.00 194.00
C 198.48 192.32 188.59 192.36 182.00 194.00 Z"/>
</g>
<g fill="#FFFFFF" fill-opacity="1.00" stroke="None"><path d="
M 86.00 276.00 
C 86.01 275.94 87.00 276.00 87.00 276.00
C 87.00 249.00 87.00 222.00 87.00 195.00
C 99.00 195.00 111.00 195.00 123.00 195.00
C 123.50 195.00 124.00 195.00 124.00 195.00
C 112.63 193.97 96.64 192.05 86.00 196.00 C 86.00 222.67 86.00 249.33 86.00 276.00 Z"/>
</g>
<g fill="#8E2FFD" fill-opacity="1.00" stroke="None"><path d="
M 169.00 197.00 
C 161.42 200.79 154.46 207.41 149.00 214.00
C 147.18 217.84 144.72 221.54 145.00 226.00
C 135.91 263.21 189.32 288.52 212.00 259.00
C 216.34 260.01 213.43 274.20 212.00 279.00
C 210.01 286.91 206.58 296.42 198.00 299.00
C 206.07 298.40 209.63 289.43 212.00 283.00
C 212.64 285.51 216.39 288.38 215.00 291.00
C 219.41 290.63 223.41 296.26 225.00 291.00
C 227.53 292.62 229.93 294.80 228.00 298.00
C 231.26 297.44 236.81 295.83 237.00 298.00
C 246.51 284.60 247.82 267.50 248.00 251.00
C 248.39 239.63 246.23 228.76 241.00 219.00
C 234.54 207.71 223.14 198.75 211.00 195.00
C 209.23 193.77 207.12 193.94 205.00 194.00
C 197.33 194.00 189.67 194.00 182.00 194.00
C 177.26 193.48 173.14 195.37 169.00 197.00
M 212.00 240.00 
C 212.00 240.50 212.00 241.00 212.00 241.00
C 211.70 245.97 207.78 251.48 203.00 253.00
C 192.55 256.92 179.81 251.59 178.00 240.00
C 173.69 228.33 180.33 210.26 195.00 211.00 C 208.96 211.37 215.34 228.72 212.00 240.00 Z"/>
</g>
<g fill="#8029FA" fill-opacity="1.00" stroke="None"><path d="
M 87.00 276.00 
C 86.30 281.70 85.57 288.76 80.00 292.00
C 80.00 292.00 79.44 291.84 79.00 292.00
C 74.09 296.08 66.16 293.08 60.00 294.00
C 60.00 301.33 60.00 308.67 60.00 316.00
C 87.87 323.24 125.79 309.60 123.00 276.00
C 123.00 249.00 123.00 222.00 123.00 195.00
C 111.00 195.00 99.00 195.00 87.00 195.00
C 87.00 222.00 87.00 249.00 87.00 276.00 Z"/>
</g>
<g fill="#FEA1FF" fill-opacity="1.00" stroke="None"><path d="
M 123.00 276.00 
C 123.00 275.96 124.00 276.00 124.00 276.00
C 124.00 249.00 124.00 222.00 124.00 195.00
C 124.00 195.00 123.50 195.00 123.00 195.00
C 123.00 222.00 123.00 249.00 123.00 276.00 Z"/>
</g>
<g fill="#FFE9FF" fill-opacity="1.00" stroke="None"><path d="
M 241.00 219.00 
C 235.57 207.10 223.78 197.25 211.00 195.00
C 223.14 198.75 234.54 207.71 241.00 219.00 Z"/>
</g>
<g fill="#FAD5FF" fill-opacity="1.00" stroke="None"><path d="
M 149.00 214.00 
C 154.46 207.41 161.42 200.79 169.00 197.00
C 160.68 199.82 153.12 206.12 149.00 214.00 Z"/>
</g>
<g fill="#CD4FFF" fill-opacity="1.00" stroke="None"><path d="
M 512.00 205.00 
C 499.07 216.51 486.86 230.00 476.00 243.00
C 468.88 253.80 460.80 264.96 459.00 278.00
C 458.99 278.50 459.00 279.00 459.00 279.00
C 460.40 280.21 462.26 279.98 464.00 280.00
C 464.37 277.12 465.67 273.74 468.00 272.00
C 468.28 275.06 467.78 277.37 470.00 279.00
C 486.22 263.26 502.31 246.78 514.00 228.00
C 517.36 221.31 521.24 214.54 524.00 208.00
C 525.37 199.78 515.92 200.60 512.00 205.00
M 511.00 219.00 
C 505.42 232.75 494.86 243.82 487.00 256.00
C 482.43 260.61 479.19 267.60 473.00 270.00
C 479.18 249.35 493.42 225.92 512.00 213.00
C 509.39 214.78 513.25 217.73 511.00 219.00 Z"/>
</g>
<g fill="#FFF5FF" fill-opacity="1.00" stroke="None"><path d="
M 572.00 203.00 
C 580.13 202.87 588.19 202.85 596.00 204.00
C 589.30 201.24 579.07 201.19 572.00 203.00 Z"/>
</g>
<g fill="#C248FF" fill-opacity="1.00" stroke="None"><path d="
M 527.00 216.00 
C 521.66 219.24 519.18 225.39 516.00 230.00
C 515.09 231.83 515.66 234.74 514.00 236.00
C 514.00 236.00 514.07 236.51 514.00 237.00
C 513.90 249.58 529.40 238.63 536.00 238.00
C 528.94 236.83 530.95 235.70 537.00 234.00
C 525.63 232.63 538.65 229.93 543.08 227.08 C 549.48 224.76 555.98 222.28 563.00 222.00
C 560.88 224.61 566.11 226.27 562.00 228.00
C 551.30 245.44 539.58 262.53 531.00 281.00
C 531.94 280.43 532.82 279.85 534.00 280.00
C 531.27 283.41 536.13 281.32 535.00 285.00
C 537.18 283.98 538.33 277.96 540.00 279.00
C 549.09 259.26 567.88 241.73 570.00 220.00
C 589.70 214.52 619.47 225.78 613.00 250.00
C 612.01 256.01 609.11 261.36 607.00 267.00
C 601.97 275.37 593.42 281.53 586.00 287.00
C 586.38 288.30 587.08 290.86 590.00 290.00
C 590.20 288.00 592.39 286.75 595.00 288.00
C 593.94 291.00 590.01 291.01 589.00 294.00
C 609.60 280.78 626.14 258.75 622.00 233.00
C 622.24 230.08 621.14 227.52 620.00 225.00
C 615.88 216.58 608.58 208.80 600.00 205.00
C 598.69 204.46 597.56 203.59 596.00 204.00
C 588.19 202.85 580.13 202.87 572.00 203.00
C 556.04 203.89 541.10 209.00 527.00 216.00 Z"/>
</g>
<g fill="#FFFCFF" fill-opacity="1.00" stroke="None"><path d="
M 476.00 243.00 
C 486.86 230.00 499.07 216.51 512.00 205.00
C 498.43 215.68 485.81 229.00 476.00 243.00 Z"/>
</g>
<g fill="#FFF9FF" fill-opacity="1.00" stroke="None"><path d="
M 620.00 225.00 
C 617.19 216.07 609.18 207.51 600.00 205.00
C 608.58 208.80 615.88 216.58 620.00 225.00 Z"/>
</g>
<g fill="#FAA4FF" fill-opacity="1.00" stroke="None"><path d="
M 514.00 228.00 
C 515.26 228.08 514.56 230.06 516.00 230.00
C 519.18 225.39 521.66 219.24 527.00 216.00
C 525.13 216.70 523.67 217.89 522.00 219.00
C 522.80 215.33 524.71 212.04 524.00 208.00
C 521.24 214.54 517.36 221.31 514.00 228.00 Z"/>
</g>
<g fill="#B22FFF" fill-opacity="1.00" stroke="None"><path d="
M 112.00 211.00 
C 104.42 210.89 100.20 212.04 95.00 210.00
C 94.36 212.67 92.28 213.75 91.00 211.00
C 85.26 229.76 88.36 254.84 89.00 273.00
C 91.26 276.43 96.97 272.32 96.00 278.00
C 99.78 277.09 112.17 280.74 107.00 274.00
C 110.19 273.06 111.79 275.22 114.00 276.00
C 115.52 271.69 116.15 259.10 120.00 262.00
C 121.09 247.18 121.66 231.78 120.00 217.00
C 117.32 216.76 117.59 220.47 115.00 221.00
C 114.04 217.53 111.11 214.99 112.00 211.00 Z"/>
</g>
<g fill="#A63EFF" fill-opacity="1.00" stroke="None"><path d="
M 314.00 213.00 
C 311.16 214.73 307.35 215.87 304.00 217.00
C 300.92 216.74 298.67 218.94 296.00 220.00
C 293.05 222.89 293.22 218.78 295.00 217.00
C 287.42 219.20 282.35 227.40 280.00 234.00
C 279.07 235.53 278.77 237.17 279.00 239.00
C 279.67 241.61 277.66 243.45 278.00 246.00
C 289.00 244.39 297.26 235.64 307.23 231.23 C 314.78 227.63 338.18 216.55 334.00 233.00
C 334.00 233.00 334.09 233.52 334.00 234.00
C 329.68 241.33 324.67 249.24 318.00 255.00
C 318.00 255.00 318.24 255.68 318.00 256.00
C 311.94 263.30 306.84 271.55 300.00 278.00
C 296.57 283.35 290.97 288.20 291.00 295.00
C 289.81 305.55 302.08 317.42 310.75 306.75 C 326.15 295.07 337.27 278.66 350.00 265.00
C 346.72 269.58 351.86 270.43 347.00 275.00
C 344.07 281.27 341.62 287.81 342.00 295.00
C 340.63 308.40 356.59 317.75 366.75 307.75 C 385.78 295.23 395.85 274.08 405.77 254.77 C 407.51 244.29 419.62 227.41 408.00 220.00
C 406.43 222.28 404.33 224.57 402.00 226.00
C 402.00 226.00 402.25 226.75 402.00 227.00
C 397.50 230.48 403.88 233.94 401.00 238.00
C 398.64 245.68 393.36 252.34 391.00 260.00
C 386.65 267.70 381.83 275.53 376.00 282.00
C 370.87 289.09 364.29 296.02 357.30 301.30 C 347.07 299.28 357.59 282.10 359.92 274.92 C 367.78 257.31 380.51 242.02 387.00 224.00
C 387.00 224.00 387.20 223.40 387.00 223.00
C 374.13 212.30 367.89 237.57 358.00 243.00
C 353.95 248.81 348.23 253.87 345.00 260.00
C 334.92 272.79 323.22 284.93 311.00 296.00
C 311.00 296.00 310.30 295.75 310.00 296.00
C 309.47 297.60 307.25 296.72 306.00 297.00
C 306.06 281.05 323.29 271.03 330.30 257.30 C 339.36 244.87 355.34 227.07 342.00 212.00
C 333.42 207.85 322.50 210.11 314.00 213.00 Z"/>
</g>
<g fill="#FFF5FF" fill-opacity="1.00" stroke="None"><path d="
M 178.00 240.00 
C 175.73 228.88 182.22 214.79 195.00 216.00 C 207.28 215.38 213.06 229.52 212.00 240.00
C 215.34 228.72 208.96 211.37 195.00 211.00 C 180.33 210.26 173.69 228.33 178.00 240.00 Z"/>
</g>
<g fill="#FFF7FF" fill-opacity="1.00" stroke="None"><path d="
M 310.00 296.00 
C 309.00 296.00 308.00 296.00 307.00 296.00
C 312.33 281.29 326.17 270.70 334.23 257.23 C 343.04 245.10 356.56 225.04 342.00 212.00
C 355.34 227.07 339.36 244.87 330.30 257.30 C 323.29 271.03 306.06 281.05 306.00 297.00
C 307.25 296.72 309.47 297.60 310.00 296.00 Z"/>
</g>
<g fill="#FFE5FF" fill-opacity="1.00" stroke="None"><path d="
M 304.00 217.00 
C 307.35 215.87 311.16 214.73 314.00 213.00
C 310.38 213.27 306.60 214.66 304.00 217.00 Z"/>
</g>
<g fill="#FFFBFF" fill-opacity="1.00" stroke="None"><path d="
M 487.00 256.00 
C 481.91 258.98 480.06 265.07 475.00 268.00
C 480.17 254.66 488.71 242.81 497.25 231.25 C 500.94 227.49 506.99 215.95 511.00 219.00
C 513.25 217.73 509.39 214.78 512.00 213.00
C 493.42 225.92 479.18 249.35 473.00 270.00
C 479.19 267.60 482.43 260.61 487.00 256.00 Z"/>
</g>
<g fill="#000000" fill-opacity="0.00" stroke="None"><path d="
M 178.00 240.00 
C 179.81 251.59 192.55 256.92 203.00 253.00
C 207.49 250.39 210.02 245.22 212.00 241.00
C 212.00 241.00 212.00 240.50 212.00 240.00
C 213.06 229.52 207.28 215.38 195.00 216.00 C 182.22 214.79 175.73 228.88 178.00 240.00 Z"/>
</g>
<g fill="#FFE4FF" fill-opacity="1.00" stroke="None"><path d="
M 280.00 234.00 
C 282.35 227.40 287.42 219.20 295.00 217.00
C 293.22 218.78 293.05 222.89 296.00 220.00
C 293.70 219.25 296.54 217.39 296.00 216.00
C 287.90 217.71 280.48 225.49 280.00 234.00 Z"/>
</g>
<g fill="#000000" fill-opacity="0.00" stroke="None"><path d="
M 487.00 256.00 
C 494.86 243.82 505.42 232.75 511.00 219.00
C 506.99 215.95 500.94 227.49 497.25 231.25 C 488.71 242.81 480.17 254.66 475.00 268.00
C 480.06 265.07 481.91 258.98 487.00 256.00 Z"/>
</g>
<g fill="#FFECFF" fill-opacity="1.00" stroke="None"><path d="
M 358.00 243.00 
C 367.89 237.57 374.13 212.30 387.00 223.00
C 375.27 210.07 366.42 236.05 358.00 243.00 Z"/>
</g>
<g fill="#FFFBFF" fill-opacity="1.00" stroke="None"><path d="
M 402.00 226.00 
C 404.33 224.57 406.43 222.28 408.00 220.00
C 419.62 227.41 407.51 244.29 405.77 254.77 C 395.85 274.08 385.78 295.23 366.75 307.75 C 356.59 317.75 340.63 308.40 342.00 295.00
C 338.76 305.29 348.49 320.85 361.31 315.31 C 388.85 299.79 404.94 267.80 412.07 238.07 C 419.33 229.15 409.98 210.74 402.00 226.00 Z"/>
</g>
<g fill="#FFFAFF" fill-opacity="1.00" stroke="None"><path d="
M 540.00 279.00 
C 538.87 283.71 535.19 287.69 536.00 293.00
C 545.12 269.42 565.54 249.92 571.00 225.00
C 588.74 220.23 615.38 227.48 613.00 250.00
C 619.47 225.78 589.70 214.52 570.00 220.00
C 567.88 241.73 549.09 259.26 540.00 279.00 Z"/>
</g>
<g fill="#FFFDFF" fill-opacity="1.00" stroke="None"><path d="
M 514.00 237.00 
C 508.99 256.97 534.69 241.91 544.00 239.00
C 544.45 235.46 539.42 238.28 539.00 235.00
C 543.04 230.71 554.71 225.82 562.00 228.00
C 566.11 226.27 560.88 224.61 563.00 222.00
C 555.98 222.28 549.48 224.76 543.08 227.08 C 538.65 229.93 525.63 232.63 537.00 234.00
C 530.95 235.70 528.94 236.83 536.00 238.00
C 529.40 238.63 513.90 249.58 514.00 237.00 Z"/>
</g>
<g fill="#FFFBFF" fill-opacity="1.00" stroke="None"><path d="
M 279.00 239.00 
C 274.90 243.79 276.91 255.53 284.77 248.77 C 300.49 240.98 315.83 227.40 334.00 229.00
C 334.00 230.33 334.00 231.67 334.00 233.00
C 338.18 216.55 314.78 227.63 307.23 231.23 C 297.26 235.64 289.00 244.39 278.00 246.00
C 277.66 243.45 279.67 241.61 279.00 239.00 Z"/>
</g>
<g fill="#FFF9FF" fill-opacity="1.00" stroke="None"><path d="
M 376.00 282.00 
C 368.73 287.72 363.63 298.99 354.00 301.00
C 354.50 286.19 363.65 273.85 370.23 261.23 C 375.33 248.94 388.37 237.26 387.00 224.00
C 380.51 242.02 367.78 257.31 359.92 274.92 C 357.59 282.10 347.07 299.28 357.30 301.30 C 364.29 296.02 370.87 289.09 376.00 282.00 Z"/>
</g>
<g fill="#000000" fill-opacity="0.00" stroke="None"><path d="
M 536.00 293.00 
C 534.77 303.83 550.18 299.88 556.22 298.22 C 564.01 297.32 570.57 292.94 578.00 291.00
C 588.20 284.43 599.20 276.96 607.00 267.00
C 609.11 261.36 612.01 256.01 613.00 250.00
C 615.38 227.48 588.74 220.23 571.00 225.00
C 565.54 249.92 545.12 269.42 536.00 293.00 Z"/>
</g>
<g fill="#FEF7FF" fill-opacity="1.00" stroke="None"><path d="
M 213.00 264.00 
C 212.61 262.43 213.94 259.78 212.00 259.00
C 189.32 288.52 135.91 263.21 145.00 226.00
C 132.05 264.23 187.06 294.46 213.00 264.00 Z"/>
</g>
<g fill="#FFE0FF" fill-opacity="0.99" stroke="None"><path d="
M 401.00 238.00 
C 403.88 233.94 397.50 230.48 402.00 227.00
C 397.41 229.01 396.92 235.38 401.00 238.00 Z"/>
</g>
<g fill="#FFFDFF" fill-opacity="1.00" stroke="None"><path d="
M 470.00 279.00 
C 466.53 281.47 467.64 288.85 469.00 292.00
C 466.46 283.51 474.87 280.86 479.25 275.25 C 487.13 265.90 495.66 256.96 503.75 247.75 C 507.19 244.88 512.03 233.78 514.00 236.00
C 515.66 234.74 515.09 231.83 516.00 230.00
C 514.56 230.06 515.26 228.08 514.00 228.00
C 502.31 246.78 486.22 263.26 470.00 279.00 Z"/>
</g>
<g fill="#C947FF" fill-opacity="1.00" stroke="None"><path d="
M 771.00 231.00 
C 765.76 233.82 758.59 243.64 768.08 245.92 C 775.37 246.98 783.63 235.52 776.00 231.00
C 774.45 230.00 772.51 229.59 771.00 231.00 Z"/>
</g>
<g fill="#FFF8FF" fill-opacity="1.00" stroke="None"><path d="
M 776.00 231.00 
C 783.63 235.52 775.37 246.98 768.08 245.92 C 758.59 243.64 765.76 233.82 771.00 231.00
C 761.90 231.91 757.92 249.04 769.00 250.00 C 778.33 251.62 785.09 234.29 776.00 231.00 Z"/>
</g>
<g fill="#FEF8FF" fill-opacity="1.00" stroke="None"><path d="
M 589.00 294.00 
C 578.56 300.32 567.49 305.36 555.93 308.93 C 545.17 312.31 519.75 317.68 524.00 298.00
C 515.57 315.73 537.88 320.18 550.93 314.93 C 587.64 306.88 630.91 275.92 622.00 233.00
C 626.14 258.75 609.60 280.78 589.00 294.00 Z"/>
</g>
<g fill="#FFF3FF" fill-opacity="1.00" stroke="None"><path d="
M 318.00 255.00 
C 324.67 249.24 329.68 241.33 334.00 234.00
C 328.46 240.60 323.83 248.28 318.00 255.00 Z"/>
</g>
<g fill="#FBEFFF" fill-opacity="1.00" stroke="None"><path d="
M 203.00 253.00 
C 207.78 251.48 211.70 245.97 212.00 241.00
C 210.02 245.22 207.49 250.39 203.00 253.00 Z"/>
</g>
<g fill="#983CFF" fill-opacity="1.00" stroke="None"><path d="
M 712.00 246.00 
C 709.86 261.11 695.90 271.50 685.00 282.00
C 685.00 282.00 685.24 282.68 685.00 283.00
C 682.98 285.72 680.25 288.20 681.00 292.00
C 688.22 321.45 722.49 304.45 736.00 289.00
C 737.11 298.22 741.53 313.99 754.22 309.22 C 763.68 306.29 769.34 296.91 777.00 291.00
C 779.12 298.61 786.37 311.31 796.23 304.23 C 803.73 300.33 809.49 293.51 816.00 288.00
C 817.88 292.02 815.63 296.92 813.00 300.00
C 813.00 300.00 813.11 300.53 813.00 301.00
C 812.60 303.11 811.62 305.66 810.00 307.00
C 810.00 307.00 810.11 307.53 810.00 308.00
C 805.22 319.40 791.05 325.45 784.00 336.00
C 782.31 338.78 779.83 341.52 780.00 345.00
C 777.06 359.64 793.84 345.39 797.75 339.75 C 808.67 324.10 816.10 305.60 834.00 296.00
C 834.73 293.35 840.41 291.17 839.00 289.00
C 837.71 289.17 837.25 290.70 836.00 291.00
C 832.07 294.99 827.34 299.23 822.00 301.00
C 822.83 295.18 825.80 288.35 829.77 281.77 C 831.74 275.52 839.91 262.82 829.00 261.00
C 824.40 262.33 820.98 267.53 820.00 272.00
C 814.50 281.33 806.72 290.60 797.30 296.30 C 780.89 303.24 788.68 276.73 798.75 272.75 C 807.86 266.05 818.92 262.47 827.00 254.00
C 825.22 249.43 819.76 251.42 816.00 251.00
C 816.00 251.00 815.47 250.89 815.00 251.00
C 808.74 254.75 801.89 258.29 796.00 263.00
C 796.00 263.00 795.40 262.80 795.00 263.00
C 780.81 273.86 778.08 293.30 760.00 298.00
C 755.92 298.27 750.98 298.23 749.00 294.00
C 742.13 278.64 772.13 271.12 765.00 256.00
C 765.00 256.00 764.49 256.05 764.00 256.00
C 753.06 254.67 747.13 266.47 741.00 273.00
C 737.83 285.52 727.66 293.86 716.00 299.00
C 714.30 301.48 710.77 300.99 708.00 301.00
C 709.24 297.96 709.71 297.70 708.00 295.00
C 716.86 288.80 727.34 279.94 726.00 268.00
C 722.28 259.45 727.20 237.50 712.00 246.00
M 709.00 290.00 
C 707.49 292.93 704.49 294.25 702.00 296.00
C 696.96 297.36 695.86 284.70 688.00 288.00
C 689.60 285.78 692.39 283.78 689.00 282.00
C 696.16 276.32 701.89 268.63 709.00 263.00
C 710.61 271.26 715.29 282.88 709.00 290.00 Z"/>
</g>
<g fill="#FEE5FF" fill-opacity="1.00" stroke="None"><path d="
M 685.00 282.00 
C 695.90 271.50 709.86 261.11 712.00 246.00
C 707.90 252.10 706.91 260.78 700.25 266.25 C 695.25 271.56 689.54 276.33 685.00 282.00 Z"/>
</g>
<g fill="#FFF8FF" fill-opacity="1.00" stroke="None"><path d="
M 816.00 251.00 
C 819.76 251.42 825.22 249.43 827.00 254.00
C 818.92 262.47 807.86 266.05 798.75 272.75 C 788.68 276.73 780.89 303.24 797.30 296.30 C 806.72 290.60 814.50 281.33 820.00 272.00
C 811.50 281.21 803.65 297.16 789.00 297.00
C 787.30 277.24 811.53 271.81 823.70 262.70 C 833.43 256.58 824.41 244.97 816.00 251.00 Z"/>
</g>
<g fill="#FDF8FF" fill-opacity="1.00" stroke="None"><path d="
M 237.00 298.00 
C 216.41 326.28 160.25 326.07 149.00 290.00
C 151.52 289.44 155.30 291.19 157.00 289.00
C 139.15 285.57 151.93 305.58 158.75 311.25 C 167.72 319.29 179.62 321.66 191.26 322.60 C 230.60 327.20 255.05 285.69 248.00 251.00
C 247.82 267.50 246.51 284.60 237.00 298.00 Z"/>
</g>
<g fill="#9B3AFF" fill-opacity="1.00" stroke="None"><path d="
M 432.00 254.00 
C 425.48 258.52 419.05 264.32 413.00 270.00
C 409.78 274.86 405.82 279.83 406.00 286.00
C 402.63 299.84 415.18 316.18 429.67 309.67 C 441.56 306.82 448.79 295.53 458.00 288.00
C 458.00 290.33 458.00 292.67 458.00 295.00
C 457.97 295.50 458.03 296.50 458.00 297.00
C 460.79 318.43 485.35 310.17 492.30 295.30 C 498.01 288.89 511.19 294.16 515.00 285.00
C 512.05 285.13 509.98 287.88 507.00 288.00
C 507.00 288.00 506.30 287.76 506.00 288.00
C 492.73 287.38 517.98 263.48 503.00 262.00 C 493.27 267.20 483.11 276.62 486.00 289.00
C 486.00 289.00 486.16 289.56 486.00 290.00
C 486.36 294.63 474.54 306.27 470.00 298.00
C 470.48 295.78 469.28 293.99 469.00 292.00
C 467.64 288.85 466.53 281.47 470.00 279.00
C 467.78 277.37 468.28 275.06 468.00 272.00
C 465.67 273.74 464.37 277.12 464.00 280.00
C 462.26 279.98 460.40 280.21 459.00 279.00
C 460.37 288.05 449.35 290.94 444.00 296.00
C 438.07 297.91 432.74 301.90 426.00 301.00
C 419.81 299.44 419.64 291.42 420.00 286.00
C 433.53 280.47 452.74 272.67 455.00 256.00
C 451.91 247.15 438.36 251.07 432.00 254.00
M 428.00 280.00 
C 425.60 279.95 423.96 281.97 422.00 283.00
C 418.84 275.93 430.58 258.12 442.00 258.00
C 444.04 267.98 435.32 275.21 428.00 280.00 Z"/>
</g>
<g fill="#963FFF" fill-opacity="1.00" stroke="None"><path d="
M 659.00 253.00 
C 649.83 257.30 641.57 265.13 635.00 273.00
C 633.30 275.78 630.83 278.52 631.00 282.00
C 626.17 294.39 633.54 314.59 649.22 310.22 C 661.57 308.90 671.08 299.29 679.00 290.00
C 679.62 285.60 672.00 294.11 669.25 295.25 C 664.70 298.58 659.49 300.76 654.00 302.00
C 645.25 302.86 642.59 293.04 644.00 286.00
C 657.42 280.29 675.36 273.12 679.00 257.00
C 677.49 248.19 665.01 250.65 659.00 253.00
M 665.00 264.00 
C 662.59 272.23 654.77 277.50 648.00 282.00
C 647.51 283.83 645.65 284.18 644.00 284.00
C 645.27 272.96 652.58 259.18 665.00 258.00
C 665.00 260.00 665.00 262.00 665.00 264.00 Z"/>
</g>
<g fill="#FFDBFF" fill-opacity="1.00" stroke="None"><path d="
M 796.00 263.00 
C 801.89 258.29 808.74 254.75 815.00 251.00
C 808.05 253.54 800.84 257.10 796.00 263.00 Z"/>
</g>
<g fill="#FFE3FF" fill-opacity="1.00" stroke="None"><path d="
M 635.00 273.00 
C 641.57 265.13 649.83 257.30 659.00 253.00
C 648.88 256.16 640.73 264.21 635.00 273.00 Z"/>
</g>
<g fill="#FFF1FF" fill-opacity="1.00" stroke="None"><path d="
M 413.00 270.00 
C 419.05 264.32 425.48 258.52 432.00 254.00
C 424.49 257.35 418.38 263.57 413.00 270.00 Z"/>
</g>
<g fill="#BD4CFF" fill-opacity="1.00" stroke="None"><path d="
M 861.00 285.00 
C 858.94 287.18 856.39 292.46 853.00 290.00
C 853.56 285.71 855.08 281.75 857.00 278.00
C 855.53 273.76 852.12 275.61 850.00 272.00
C 847.92 275.29 846.32 279.11 844.00 282.00
C 843.22 284.90 840.52 286.49 839.00 289.00
C 840.41 291.17 834.73 293.35 834.00 296.00
C 836.76 294.58 838.27 291.35 841.00 290.00
C 843.20 290.74 840.69 294.33 843.00 295.00
C 845.71 292.48 843.94 297.47 845.00 299.00
C 848.37 299.58 845.75 294.28 849.00 294.00
C 851.86 297.91 853.99 292.16 858.00 292.00
C 859.06 294.21 858.22 295.93 857.00 298.00
C 864.34 289.24 871.93 278.16 882.00 272.00
C 881.42 277.08 880.09 281.51 876.00 287.00
C 877.62 288.90 873.76 292.65 876.00 295.00
C 878.94 291.90 881.50 293.32 884.00 290.00
C 884.39 291.57 883.06 294.22 885.00 295.00
C 883.16 281.66 896.60 274.42 902.00 264.00
C 902.38 248.36 886.61 256.43 880.75 263.75 C 873.16 269.50 865.88 277.14 861.00 285.00 Z"/>
</g>
<g fill="#FFF2FF" fill-opacity="1.00" stroke="None"><path d="
M 741.00 273.00 
C 747.13 266.47 753.06 254.67 764.00 256.00
C 754.17 252.63 745.75 265.49 741.00 273.00 Z"/>
</g>
<g fill="#FFEAFF" fill-opacity="1.00" stroke="None"><path d="
M 300.00 278.00 
C 306.84 271.55 311.94 263.30 318.00 256.00
C 311.19 262.47 305.67 270.46 300.00 278.00 Z"/>
</g>
<g fill="#FFFAFF" fill-opacity="1.00" stroke="None"><path d="
M 426.00 301.00 
C 422.51 298.80 420.92 294.22 421.00 290.00
C 435.18 284.66 458.17 274.07 455.00 256.00
C 452.74 272.67 433.53 280.47 420.00 286.00
C 419.64 291.42 419.81 299.44 426.00 301.00 Z"/>
</g>
<g fill="#FFFBFF" fill-opacity="1.00" stroke="None"><path d="
M 749.00 294.00 
C 749.54 280.67 775.55 269.41 765.00 256.00
C 772.13 271.12 742.13 278.64 749.00 294.00 Z"/>
</g>
<g fill="#FFFCFF" fill-opacity="1.00" stroke="None"><path d="
M 654.00 302.00 
C 654.04 302.00 654.00 301.00 654.00 301.00
C 644.07 302.64 641.53 287.05 652.31 287.30 C 663.81 281.30 681.42 271.78 679.00 257.00
C 675.36 273.12 657.42 280.29 644.00 286.00
C 642.59 293.04 645.25 302.86 654.00 302.00 Z"/>
</g>
<g fill="#F5A8FF" fill-opacity="1.00" stroke="None"><path d="
M 212.00 259.00 
C 213.94 259.78 212.61 262.43 213.00 264.00
C 213.72 269.28 211.44 273.78 212.00 279.00
C 213.43 274.20 216.34 260.01 212.00 259.00 Z"/>
</g>
<g fill="#FFF9FF" fill-opacity="1.00" stroke="None"><path d="
M 422.00 283.00 
C 424.29 273.77 431.42 264.25 441.00 262.00
C 441.53 270.38 432.62 274.64 428.00 280.00
C 435.32 275.21 444.04 267.98 442.00 258.00
C 430.58 258.12 418.84 275.93 422.00 283.00 Z"/>
</g>
<g fill="#FFF9FF" fill-opacity="1.00" stroke="None"><path d="
M 648.00 282.00 
C 643.43 282.31 649.58 272.66 652.25 270.25 C 655.67 267.22 661.09 259.45 665.00 264.00
C 665.00 262.00 665.00 260.00 665.00 258.00
C 652.58 259.18 645.27 272.96 644.00 284.00
C 645.65 284.18 647.51 283.83 648.00 282.00 Z"/>
</g>
<g fill="#FFFBFF" fill-opacity="1.00" stroke="None"><path d="
M 861.00 260.00 
C 864.47 259.87 867.84 259.87 871.00 261.00
C 867.38 267.29 862.22 273.05 857.00 278.00
C 855.08 281.75 853.56 285.71 853.00 290.00
C 856.39 292.46 858.94 287.18 861.00 285.00
C 858.62 286.04 857.41 288.89 855.00 290.00
C 854.10 283.04 862.97 278.20 866.25 272.25 C 875.21 267.09 871.26 254.30 861.00 260.00 Z"/>
</g>
<g fill="#FFF3FF" fill-opacity="1.00" stroke="None"><path d="
M 311.00 296.00 
C 323.22 284.93 334.92 272.79 345.00 260.00
C 333.75 271.70 322.66 284.17 311.00 296.00 Z"/>
</g>
<g fill="#FFE6FF" fill-opacity="1.00" stroke="None"><path d="
M 376.00 282.00 
C 381.83 275.53 386.65 267.70 391.00 260.00
C 385.66 266.74 380.63 274.71 376.00 282.00 Z"/>
</g>
<g fill="#FFF1FF" fill-opacity="1.00" stroke="None"><path d="
M 829.00 261.00 
C 839.91 262.82 831.74 275.52 829.77 281.77 C 825.80 288.35 822.83 295.18 822.00 301.00
C 827.34 299.23 832.07 294.99 836.00 291.00
C 831.73 293.19 828.49 297.49 824.00 299.00
C 827.85 292.42 830.34 285.27 833.22 278.22 C 836.64 273.10 837.62 258.94 829.00 261.00 Z"/>
</g>
<g fill="#E25FFF" fill-opacity="1.00" stroke="None"><path d="
M 844.00 282.00 
C 846.32 279.11 847.92 275.29 850.00 272.00
C 852.12 275.61 855.53 273.76 857.00 278.00
C 862.22 273.05 867.38 267.29 871.00 261.00
C 867.84 259.87 864.47 259.87 861.00 260.00
C 852.93 264.43 847.44 273.80 844.00 282.00 Z"/>
</g>
<g fill="#FFEDFF" fill-opacity="1.00" stroke="None"><path d="
M 486.00 289.00 
C 483.11 276.62 493.27 267.20 503.00 262.00 C 517.98 263.48 492.73 287.38 506.00 288.00
C 505.00 288.00 504.00 288.00 503.00 288.00
C 504.61 280.24 516.97 257.45 500.25 262.25 C 491.49 267.79 481.14 277.86 486.00 289.00 Z"/>
</g>
<g fill="#000000" fill-opacity="0.00" stroke="None"><path d="
M 422.00 283.00 
C 423.96 281.97 425.60 279.95 428.00 280.00
C 432.62 274.64 441.53 270.38 441.00 262.00
C 431.42 264.25 424.29 273.77 422.00 283.00 Z"/>
</g>
<g fill="#000000" fill-opacity="0.00" stroke="None"><path d="
M 648.00 282.00 
C 654.77 277.50 662.59 272.23 665.00 264.00
C 661.09 259.45 655.67 267.22 652.25 270.25 C 649.58 272.66 643.43 282.31 648.00 282.00 Z"/>
</g>
<g fill="#FFFCFF" fill-opacity="1.00" stroke="None"><path d="
M 702.00 296.00 
C 697.29 294.66 696.66 285.88 690.00 287.00
C 695.15 279.76 704.04 274.70 708.00 267.00
C 711.07 273.53 712.55 282.98 709.00 290.00
C 715.29 282.88 710.61 271.26 709.00 263.00
C 701.89 268.63 696.16 276.32 689.00 282.00
C 692.39 283.78 689.60 285.78 688.00 288.00
C 695.86 284.70 696.96 297.36 702.00 296.00 Z"/>
</g>
<g fill="#FFE7FF" fill-opacity="1.00" stroke="None"><path d="
M 760.00 298.00 
C 778.08 293.30 780.81 273.86 795.00 263.00
C 780.05 272.94 777.00 291.92 760.00 298.00 Z"/>
</g>
<g fill="#FFFDFF" fill-opacity="1.00" stroke="None"><path d="
M 885.00 295.00 
C 884.68 296.69 886.32 298.29 888.00 298.00
C 879.39 285.06 904.54 276.15 902.00 264.00
C 896.60 274.42 883.16 281.66 885.00 295.00 Z"/>
</g>
<g fill="#FFF9FF" fill-opacity="1.00" stroke="None"><path d="
M 291.00 295.00 
C 288.19 302.96 296.18 321.05 306.92 313.92 C 323.16 305.13 334.23 285.13 347.00 275.00
C 351.86 270.43 346.72 269.58 350.00 265.00
C 337.27 278.66 326.15 295.07 310.75 306.75 C 302.08 317.42 289.81 305.55 291.00 295.00 Z"/>
</g>
<g fill="#FFEFFF" fill-opacity="0.99" stroke="None"><path d="
M 578.00 291.00 
C 580.69 289.63 583.31 288.35 586.00 287.00
C 593.42 281.53 601.97 275.37 607.00 267.00
C 599.20 276.96 588.20 284.43 578.00 291.00 Z"/>
</g>
<g fill="#000000" fill-opacity="0.00" stroke="None"><path d="
M 702.00 296.00 
C 704.49 294.25 707.49 292.93 709.00 290.00
C 712.55 282.98 711.07 273.53 708.00 267.00
C 704.04 274.70 695.15 279.76 690.00 287.00
C 696.66 285.88 697.29 294.66 702.00 296.00 Z"/>
</g>
<g fill="#FFF8FF" fill-opacity="1.00" stroke="None"><path d="
M 716.00 299.00 
C 713.82 299.18 710.66 301.35 709.00 299.00
C 719.29 292.72 729.88 280.22 726.00 268.00
C 727.34 279.94 716.86 288.80 708.00 295.00
C 709.71 297.70 709.24 297.96 708.00 301.00
C 710.77 300.99 714.30 301.48 716.00 299.00 Z"/>
</g>
<g fill="#FEFBFF" fill-opacity="1.00" stroke="None"><path d="
M 857.00 298.00 
C 854.43 308.42 841.62 305.19 843.00 295.00
C 840.69 294.33 843.20 290.74 841.00 290.00
C 838.27 291.35 836.76 294.58 834.00 296.00
C 816.10 305.60 808.67 324.10 797.75 339.75 C 793.84 345.39 777.06 359.64 780.00 345.00
C 771.73 356.93 788.02 358.52 793.25 349.25 C 808.49 330.13 818.38 307.41 841.00 295.00
C 842.28 300.52 844.93 314.63 853.25 308.25 C 861.55 297.63 869.21 285.83 880.00 278.00
C 878.39 283.39 872.96 287.25 872.00 293.00
C 874.02 291.66 873.95 288.28 876.00 287.00
C 880.09 281.51 881.42 277.08 882.00 272.00
C 871.93 278.16 864.34 289.24 857.00 298.00 Z"/>
</g>
<g fill="#F9D4FF" fill-opacity="1.00" stroke="None"><path d="
M 80.00 292.00 
C 85.57 288.76 86.30 281.70 87.00 276.00
C 87.00 276.00 86.01 275.94 86.00 276.00
C 85.57 281.84 84.13 287.62 80.00 292.00 Z"/>
</g>
<g fill="#FEFBFF" fill-opacity="1.00" stroke="None"><path d="
M 60.00 316.00 
C 60.00 317.67 60.00 319.33 60.00 321.00
C 90.13 328.45 128.58 311.67 124.00 276.00
C 124.00 276.00 123.00 275.96 123.00 276.00
C 125.79 309.60 87.87 323.24 60.00 316.00 Z"/>
</g>
<g fill="#FFE3FF" fill-opacity="1.00" stroke="None"><path d="
M 444.00 296.00 
C 449.35 290.94 460.37 288.05 459.00 279.00
C 459.00 279.00 458.99 278.50 459.00 278.00
C 456.86 279.38 458.53 282.81 458.00 285.00
C 453.06 288.13 447.99 291.74 444.00 296.00 Z"/>
</g>
<g fill="#8F43FF" fill-opacity="1.00" stroke="None"><path d="
M 531.00 281.00 
C 530.01 284.48 528.24 288.31 526.00 291.00
C 524.92 293.22 523.46 295.32 524.00 298.00
C 519.75 317.68 545.17 312.31 555.93 308.93 C 567.49 305.36 578.56 300.32 589.00 294.00
C 590.01 291.01 593.94 291.00 595.00 288.00
C 592.39 286.75 590.20 288.00 590.00 290.00
C 587.08 290.86 586.38 288.30 586.00 287.00
C 583.31 288.35 580.69 289.63 578.00 291.00
C 570.57 292.94 564.01 297.32 556.22 298.22 C 550.18 299.88 534.77 303.83 536.00 293.00
C 535.19 287.69 538.87 283.71 540.00 279.00
C 538.33 277.96 537.18 283.98 535.00 285.00
C 536.13 281.32 531.27 283.41 534.00 280.00
C 532.82 279.85 531.94 280.43 531.00 281.00 Z"/>
</g>
<g fill="#FFDFFF" fill-opacity="1.00" stroke="None"><path d="
M 526.00 291.00 
C 528.24 288.31 530.01 284.48 531.00 281.00
C 528.76 283.69 526.99 287.52 526.00 291.00 Z"/>
</g>
<g fill="#FFFCFF" fill-opacity="1.00" stroke="None"><path d="
M 813.00 300.00 
C 815.63 296.92 817.88 292.02 816.00 288.00
C 809.49 293.51 803.73 300.33 796.23 304.23 C 786.37 311.31 779.12 298.61 777.00 291.00
C 769.34 296.91 763.68 306.29 754.22 309.22 C 741.53 313.99 737.11 298.22 736.00 289.00
C 722.49 304.45 688.22 321.45 681.00 292.00
C 679.74 291.92 680.44 289.94 679.00 290.00
C 671.08 299.29 661.57 308.90 649.22 310.22 C 633.54 314.59 626.17 294.39 631.00 282.00
C 625.12 293.67 630.30 316.54 647.00 315.00 C 660.92 314.99 670.06 303.52 680.00 295.00
C 680.76 308.14 696.01 316.42 707.98 311.98 C 719.01 309.37 726.42 299.66 736.00 294.00
C 736.35 303.98 742.59 318.64 754.92 313.92 C 763.88 310.64 769.51 301.90 777.00 296.00
C 779.11 303.06 785.73 315.79 795.30 309.31 C 802.89 305.86 808.45 299.27 815.00 294.00
C 815.16 296.29 812.86 297.75 813.00 300.00 Z"/>
</g>
<g fill="#6D2EEF" fill-opacity="1.00" stroke="None"><path d="
M 198.00 299.00 
C 189.50 300.30 182.24 294.05 181.00 286.00
C 173.25 288.01 164.72 286.94 157.00 289.00
C 155.30 291.19 151.52 289.44 149.00 290.00
C 160.25 326.07 216.41 326.28 237.00 298.00
C 236.81 295.83 231.26 297.44 228.00 298.00
C 229.93 294.80 227.53 292.62 225.00 291.00
C 223.41 296.26 219.41 290.63 215.00 291.00
C 216.39 288.38 212.64 285.51 212.00 283.00
C 209.63 289.43 206.07 298.40 198.00 299.00 Z"/>
</g>
<g fill="#FCD2FF" fill-opacity="1.00" stroke="None"><path d="
M 654.00 301.00 
C 654.00 301.00 654.04 302.00 654.00 302.00
C 659.49 300.76 664.70 298.58 669.25 295.25 C 672.00 294.11 679.62 285.60 679.00 290.00
C 680.44 289.94 679.74 291.92 681.00 292.00
C 680.25 288.20 682.98 285.72 685.00 283.00
C 674.94 289.28 666.08 298.72 654.00 301.00 Z"/>
</g>
<g fill="#FFFAFF" fill-opacity="1.00" stroke="None"><path d="
M 507.00 288.00 
C 509.98 287.88 512.05 285.13 515.00 285.00
C 511.19 294.16 498.01 288.89 492.30 295.30 C 485.35 310.17 460.79 318.43 458.00 297.00
C 457.01 307.08 464.30 318.44 475.77 314.77 C 483.18 311.02 490.52 304.57 494.00 297.00
C 502.58 297.46 517.96 295.43 516.00 284.00
C 512.63 284.02 509.44 286.10 507.00 288.00 Z"/>
</g>
<g fill="#FEF9FF" fill-opacity="1.00" stroke="None"><path d="
M 897.00 293.00 
C 900.39 290.30 903.43 287.33 907.00 285.00
C 904.41 292.71 895.70 298.29 889.75 303.75 C 884.74 311.73 867.85 312.65 870.00 300.00
C 863.20 313.89 883.38 319.61 890.25 308.25 C 896.42 301.35 911.13 294.91 907.00 284.00
C 903.50 286.71 899.48 289.05 897.00 293.00 Z"/>
</g>
<g fill="#8239FF" fill-opacity="1.00" stroke="None"><path d="
M 897.00 293.00 
C 893.56 293.61 891.33 296.88 888.00 298.00
C 886.32 298.29 884.68 296.69 885.00 295.00
C 883.06 294.22 884.39 291.57 884.00 290.00
C 881.50 293.32 878.94 291.90 876.00 295.00
C 873.76 292.65 877.62 288.90 876.00 287.00
C 873.95 288.28 874.02 291.66 872.00 293.00
C 870.92 295.22 869.46 297.32 870.00 300.00
C 867.85 312.65 884.74 311.73 889.75 303.75 C 895.70 298.29 904.41 292.71 907.00 285.00
C 903.43 287.33 900.39 290.30 897.00 293.00 Z"/>
</g>
<g fill="#FFF9FF" fill-opacity="1.00" stroke="None"><path d="
M 458.00 295.00 
C 458.00 292.67 458.00 290.33 458.00 288.00
C 448.79 295.53 441.56 306.82 429.67 309.67 C 415.18 316.18 402.63 299.84 406.00 286.00
C 401.00 299.33 410.94 319.62 427.93 314.93 C 440.37 313.16 448.23 299.11 458.00 295.00 Z"/>
</g>
<g fill="#FEEEFF" fill-opacity="1.00" stroke="None"><path d="
M 470.00 298.00 
C 474.54 306.27 486.36 294.63 486.00 290.00
C 483.38 295.32 476.09 303.73 470.00 298.00 Z"/>
</g>
<g fill="#FDF2FF" fill-opacity="1.00" stroke="None"><path d="
M 60.00 294.00 
C 66.16 293.08 74.09 296.08 79.00 292.00
C 73.20 294.53 65.43 291.36 60.00 294.00 Z"/>
</g>
<g fill="#8F32FF" fill-opacity="1.00" stroke="None"><path d="
M 843.00 295.00 
C 841.62 305.19 854.43 308.42 857.00 298.00
C 858.22 295.93 859.06 294.21 858.00 292.00
C 853.99 292.16 851.86 297.91 849.00 294.00
C 845.75 294.28 848.37 299.58 845.00 299.00
C 843.94 297.47 845.71 292.48 843.00 295.00 Z"/>
</g>
<g fill="#FFDFFF" fill-opacity="1.00" stroke="None"><path d="
M 810.00 307.00 
C 811.62 305.66 812.60 303.11 813.00 301.00
C 811.38 302.34 810.40 304.89 810.00 307.00 Z"/>
</g>
<g fill="#F8D9FF" fill-opacity="1.00" stroke="None"><path d="
M 784.00 336.00 
C 791.05 325.45 805.22 319.40 810.00 308.00
C 803.76 319.13 789.98 323.98 784.00 336.00 Z"/>
</g>
</svg>